<svg width="795" height="72" viewBox="0 0 795 72" fill="none" xmlns="http://www.w3.org/2000/svg">
<path d="M92.7005 20.4426L87.1565 28.7874C89.8301 34.1239 91.1391 40.0409 90.966 46.008C90.7929 51.9752 89.1433 57.8062 86.1649 62.9785H23.6931C19.822 56.2581 18.218 48.4682 19.1187 40.7636C20.0195 33.0591 23.3771 25.8502 28.6939 20.2055C34.0106 14.5608 41.0034 10.7809 48.6355 9.42615C56.2677 8.07138 64.1329 9.21387 71.0653 12.6842L79.4038 7.13608C70.9142 1.68814 60.8441 -0.753105 50.8042 0.202853C40.7644 1.15881 31.335 5.45674 24.0243 12.4091C16.7136 19.3616 11.9441 28.5667 10.4785 38.5523C9.01298 48.5378 10.9362 58.7267 15.9404 67.4892C16.727 68.8527 17.8565 69.9864 19.2165 70.7778C20.5766 71.5691 22.1199 71.9904 23.6931 71.9999H86.1198C87.7083 72.0062 89.2702 71.5924 90.6474 70.8003C92.0247 70.0082 93.1683 68.8659 93.9626 67.4892C98.1155 60.2898 100.2 52.0819 99.9849 43.7718C99.7702 35.4616 97.2648 27.3725 92.7456 20.3975L92.7005 20.4426ZM48.5736 51.2958C49.4108 52.1346 50.405 52.8 51.4994 53.254C52.5938 53.708 53.7668 53.9417 54.9515 53.9417C56.1362 53.9417 57.3092 53.708 58.4036 53.254C59.498 52.8 60.4922 52.1346 61.3294 51.2958L86.841 13L48.5736 38.5305C47.7355 39.3684 47.0705 40.3633 46.6169 41.4585C46.1632 42.5537 45.9297 43.7276 45.9297 44.9132C45.9297 46.0987 46.1632 47.2727 46.6169 48.3678C47.0705 49.463 47.7355 50.458 48.5736 51.2958Z" fill="#FFBF9B"/>
</svg>
